<svg xmlns="http://www.w3.org/2000/svg" xmlns:xlink="http://www.w3.org/1999/xlink" width="25" height="31" viewBox="0 0 25 31">
    <defs>
        <path id="a" d="M.15.33h16.778v20.742H.15z"/>
        <path id="c" d="M0 .43h20.72v28.244H0z"/>
    </defs>
    <g fill="none" fill-rule="evenodd">
        <g transform="translate(7.29 .156)">
            <mask id="b" fill="#fff">
                <use xlink:href="#a"/>
            </mask>
            <path fill="#226432" d="M15.652 17.827a11.515 11.515 0 0 1-2.4 3.186c-.036.035-.09.065-.109.058l.007-.013a.275.275 0 0 1 .032-.046c.269-.345.509-.72.712-1.119 1.638-3.211 1.033-8.06-1.541-12.359-1.427-2.38-3.632-4.387-6.046-5.507C4.14 1.024 1.99.797.15 1.36A11.604 11.604 0 0 1 6.506.437c2.57.345 4.92 1.51 6.793 3.359a12.116 12.116 0 0 1 3.48 6.751c.397 2.489-.003 5.075-1.127 7.28" mask="url(#b)"/>
        </g>
        <g transform="translate(0 2.1)">
            <mask id="d" fill="#fff">
                <use xlink:href="#c"/>
            </mask>
            <path fill="#88C236" d="M20.668 13.485c-.044.143-.09.283-.14.42l-.007.022c-.015.047-.03.094-.047.14l-.003.006-.012.027c-.061.156-.125.301-.19.446l-.015.037-.023.054-.035.079a2.426 2.426 0 0 1-.055.126l-.019.036-.005.012-.007.011c-.019.039-.036.07-.054.1l-.013.025c-.015.03-.035.065-.054.1l-.023.042-.048.09a6.302 6.302 0 0 1-.179.322 3.583 3.583 0 0 1-.083.127l-.052.077c-.103.16-.214.331-.338.499l-.067.089-.034.044c-.02.026-.042.052-.064.077l-.04.049a9.522 9.522 0 0 1-.333.402 9.66 9.66 0 0 1-.152.163l-.02.021a4.227 4.227 0 0 1-.103.106l-.043.043a8.522 8.522 0 0 1-.364.35l-.035.03-.193.196c-.91.925-1.98 2.032-3.01 3.237l-2.72 3.18-.185.217-.185-.216-2.724-3.184a55.555 55.555 0 0 0-3.492-3.727 9.092 9.092 0 0 1-2.777-6.818c.098-3.918 2.812-7.442 6.6-8.568a9.4 9.4 0 0 1 .806-.199 16.02 16.02 0 0 1 .699-.106c.393-.048.745-.07 1.073-.07h.121c.176.001.354.01.534.023a9.628 9.628 0 0 0-2.174-.998C9.988.501 9.38.43 8.712.43c-1.753 0-3.367.431-4.319 1.153-2.66 2.02-4.3 5.343-4.39 8.89a11.946 11.946 0 0 0 3.603 8.838 53.05 53.05 0 0 1 3.32 3.545l4.977 5.818 4.974-5.816c.258-.302.382-.455.464-.556.17-.21.18-.22.709-.748 1.081-1.082 3.013-5.4 2.618-8.069" mask="url(#d)"/>
        </g>
    </g>
</svg>
