<svg xmlns="http://www.w3.org/2000/svg" xmlns:xlink="http://www.w3.org/1999/xlink" width="32" height="32" viewBox="0 0 32 32">
    <defs>
        <path id="a" d="M.009.279h15.122v15.906H.01z"/>
    </defs>
    <g fill="none" fill-rule="evenodd">
        <path stroke="#88C236" stroke-linecap="round" stroke-linejoin="round" stroke-width="1.531" d="M9.447 2.083a6.635 6.635 0 1 1 0 13.27 6.635 6.635 0 0 1 0-13.27zM5.822 7.602h5.116M5.458 9.86h5.116"/>
        <path stroke="#88C236" stroke-linecap="round" stroke-linejoin="round" stroke-width="1.531" d="M12.109 11.238a2.95 2.95 0 0 1-.924.763c-.348.18-.73.28-1.13.28-.402 0-.785-.1-1.132-.28-.348-.18-.66-.44-.923-.763a3.72 3.72 0 0 1-.623-1.132 4.265 4.265 0 0 1-.228-1.388c0-.492.08-.96.228-1.387.147-.426.36-.81.623-1.132.262-.322.575-.583.923-.764.347-.18.73-.279 1.131-.279s.783.1 1.13.28c.35.18.662.441.925.763M22.324 18.713v1.423M22.324 26.342v1.423M22.324 16.61a6.63 6.63 0 1 1-.002 13.259 6.63 6.63 0 0 1 .002-13.26z"/>
        <path stroke="#88C236" stroke-linecap="round" stroke-linejoin="round" stroke-width="1.531" d="M24.386 20.877c-.655-.217-1.247-.423-1.84-.49-3.196-.358-3.607 2.862-.204 2.852 3.306-.011 2.996 3.212-.208 2.85-.594-.067-1.185-.273-1.836-.489"/>
        <path fill="#286334" d="M.506 18.053a9.462 9.462 0 0 1 1.574-2.87c.025-.033.065-.064.082-.06 0 0-.001.006-.004.01a5.745 5.745 0 0 0-.468 1.033c-.952 2.804.11 6.673 2.708 9.861 1.44 1.767 3.468 3.138 5.56 3.763 1.879.559 3.652.49 5.08-.185a9.521 9.521 0 0 1-5.054 1.5c-2.129.021-4.174-.648-5.915-1.93A9.942 9.942 0 0 1 .447 24.1c-.615-1.975-.595-4.122.059-6.047"/>
        <g transform="translate(16.074 .487)">
            <mask id="b" fill="#fff">
                <use xlink:href="#a"/>
            </mask>
            <path fill="#286334" d="M14.656 13.237a9.474 9.474 0 0 1-1.546 2.886c-.025.032-.065.064-.08.062 0-.002 0-.006.002-.011a.233.233 0 0 1 .021-.042c.175-.315.322-.649.437-.998.925-2.81-.176-6.669-2.805-9.831C9.228 3.55 7.187 2.2 5.087 1.595c-1.883-.54-3.656-.454-5.078.234A9.523 9.523 0 0 1 5.049.281c2.128-.044 4.18.604 5.934 1.87a9.943 9.943 0 0 1 3.672 5.039c.635 1.97.635 4.117 0 6.047" mask="url(#b)"/>
        </g>
    </g>
</svg>
