<svg xmlns="http://www.w3.org/2000/svg" width="26" height="28" viewBox="0 0 26 28">
    <g fill="none" fill-rule="evenodd">
        <path fill="#226432" d="M23.814 7.019a12.276 12.276 0 0 1 1.362 4.028c.008.052.003.118-.015.13a.305.305 0 0 1-.029-.07 7.419 7.419 0 0 0-.556-1.298c-1.842-3.373-6.474-5.757-11.805-6.074-2.953-.177-6.046.558-8.483 2.009C2.103 7.048.61 8.804 0 10.763a12.375 12.375 0 0 1 3.01-6.15C4.858 2.557 7.294 1.19 10.05.652a12.918 12.918 0 0 1 8.035.996c2.428 1.148 4.464 3.054 5.729 5.37"/>
        <path fill="#88C236" d="M22.371 25.238c0 .154-.13.284-.284.284h-8.81v-9.094h9.094v8.81zm-10.799.284h-8.81a.288.288 0 0 1-.284-.284v-8.81h9.094v9.094zm10.8-16.241v5.442h-9.095v-8.97c-.197-.017-.393-.038-.592-.05-.37-.021-.74-.029-1.113-.022v9.042H2.478V9.019a9.027 9.027 0 0 0-1.705 2.023v14.196c0 1.097.892 1.99 1.99 1.99h19.324c1.097 0 1.99-.893 1.99-1.99v-14.03A9.353 9.353 0 0 0 22.37 9.28z"/>
        <path fill="#88C236" d="M6.172 22.965h1.706v-1.706h1.705v-1.705H7.878V17.85H6.172v1.705h-1.99v1.705h1.99zM4.183 11.313h5.4V9.607h-5.4zM14.982 22.965h5.4V21.26h-5.4zM14.982 20.407h5.4v-1.705h-5.4zM16.448 10.347l-1.244 1.244 1.205 1.205 1.244-1.244 1.245 1.245 1.205-1.206-1.245-1.244 1.246-1.245-1.206-1.206-1.245 1.245-1.244-1.244-1.206 1.205z"/>
    </g>
</svg>
