<svg xmlns="http://www.w3.org/2000/svg" width="19" height="18" viewBox="0 0 19 18">
    <path fill="#606060" fill-rule="nonzero" d="M18.164 14.009c-.612-1.206-2.585-1.923-5.32-2.917l-.6-.218a.314.314 0 0 1-.188-.188v-.016a1.866 1.866 0 0 1 .009-.994.306.306 0 0 1 .066-.112 7.461 7.461 0 0 0 1.611-5.145A4.15 4.15 0 0 0 11.697.601 4.322 4.322 0 0 0 7.3.6a4.15 4.15 0 0 0-2.045 3.818A7.442 7.442 0 0 0 6.86 9.551a.3.3 0 0 1 .061.102c.106.33.114.684.023 1.019v.016a.311.311 0 0 1-.189.187l-.599.218c-2.73.994-4.703 1.71-5.32 2.917A8.27 8.27 0 0 0 0 17.38c0 .343.284.621.633.621h17.734c.35 0 .633-.278.633-.621a8.27 8.27 0 0 0-.836-3.37z"/>
</svg>
