<svg xmlns="http://www.w3.org/2000/svg" width="40" height="47" viewBox="0 0 40 47">
    <defs>
        <radialGradient id="a" cx="40.619%" cy="3.875%" r="88.434%" fx="40.619%" fy="3.875%">
            <stop offset="0%" stop-color="#FFEF2A"/>
            <stop offset="100%" stop-color="#94C549"/>
        </radialGradient>
        <radialGradient id="b" cx="51.565%" cy="-48.911%" r="96.998%" fx="51.565%" fy="-48.911%">
            <stop offset="0%" stop-color="#FFEF2A"/>
            <stop offset="100%" stop-color="#94C549"/>
        </radialGradient>
        <radialGradient id="c" cx="50.031%" cy="49.993%" r="87.148%" fx="50.031%" fy="49.993%" gradientTransform="matrix(1 0 0 .44408 0 .278)">
            <stop offset="35.71%" stop-color="#FFEF2A"/>
            <stop offset="100%" stop-color="#709B39"/>
        </radialGradient>
    </defs>
    <g fill="none" fill-rule="nonzero">
        <path fill="url(#a)" d="M19.622 46.39l-.112-.067C8.378 38.842.314 27.15.224 27.037l-.067-.112.067-.112C.291 26.7 8.109 15.008 19.51 7.526l.112-.067.112.067c11.738 7.706 19.22 19.175 19.287 19.287l.067.112-.067.112c-.067.112-7.101 12.297-19.309 19.309l-.09.044z" transform="translate(.432)"/>
        <path fill="url(#b)" d="M19.578 45.046C8.982 37.923 1.456 26.925 1.456 26.925S8.758 15.882 19.622 8.758C30.778 16.083 37.744 26.88 37.744 26.88s-6.54 11.491-18.166 18.166z" transform="translate(.432)"/>
        <path fill="#388F3F" d="M23.773 19.734c-.157 4.167-1.725 8.557-4.301 12.074-2.352 3.203-5.22 5.757-8.198 7.437a79.282 79.282 0 0 0 2.8 2.553A18.911 18.911 0 0 0 25.43 30.912c1.545-3.83 1.791-7.93.739-11.85" opacity=".3"/>
        <path fill="#296334" d="M19.763.246c-1.702 1.12-2.845 2.823-2.89 2.89l-.201.314.202.29c.044.068 1.21 1.77 2.867 2.89l.291.18.291-.18c1.86-1.075 2.89-2.867 2.935-2.934l.156-.291-.179-.269c-.045-.067-1.142-1.747-2.89-2.89l-.29-.201-.292.201z"/>
        <path fill="url(#c)" d="M14.067 36.646c1.815-1.568 3.517-3.516 4.995-5.756 2.375-3.63 3.808-8.154 3.92-12.432.09-3.27-.582-6.16-1.904-8.4l2.061 2.553a20.423 20.423 0 0 1 2.106 5.152 20.952 20.952 0 0 1-.605 12.186l-10.573 6.697z" transform="translate(.432)"/>
        <path fill="#296334" d="M6.726 42.022a18.213 18.213 0 0 1-5.219-1.187c-.269-.112-.56-.224-.851-.358-.067-.023-.157-.09-.157-.112h.023a.17.17 0 0 1 .09.022c.671.18 1.343.291 2.038.359 5.622.425 12.275-3.405 16.912-9.722 2.576-3.494 4.144-7.907 4.3-12.074.135-3.74-.85-6.988-2.777-9.296 2.486 2.285 4.3 5.31 5.197 8.624 1.052 3.92.806 8.02-.74 11.85a18.911 18.911 0 0 1-7.638 9.117 18.584 18.584 0 0 1-11.178 2.777z"/>
        <path fill="#296334" d="M26.304 18.278a18.225 18.225 0 0 0-3.517-6.832 18.181 18.181 0 0 1 3.203 6.496c1.076 3.965.807 8.11-.739 11.984a19.236 19.236 0 0 1-7.728 9.23c-3.405 2.105-7.414 3.113-11.334 2.822-.18-.023-.359-.023-.538-.045.359.045.695.09 1.053.112 3.875.291 7.84-.695 11.2-2.778a18.911 18.911 0 0 0 7.638-9.117c1.568-3.852 1.815-7.952.762-11.872z"/>
    </g>
</svg>
